<?xml version="1.0" encoding="UTF-8"?>
<!-- Generated by Pixelmator Pro 3.1.1 -->
<svg width="646" height="250" viewBox="0 0 646 250" xmlns="http://www.w3.org/2000/svg" xmlns:xlink="http://www.w3.org/1999/xlink">
    <g id="Group">
        <radialGradient id="radialGradient1" cx="29.104771" cy="179.591435" r="108.343953" fx="29.104771" fy="179.591435" gradientUnits="userSpaceOnUse">
            <stop offset="1e-05" stop-color="#000000" stop-opacity="1"/>
            <stop offset="1" stop-color="#000000" stop-opacity="0"/>
        </radialGradient>
        <path id="path3163" fill="url(#radialGradient1)" stroke="none" opacity="0.61204" d="M 143.437164 191.261688 C 143.437469 205.315964 122.024597 217.874207 87.333527 224.165466 C 52.642437 230.456696 9.997339 229.515381 -24.400551 221.699158 C -58.798439 213.882889 -79.669907 200.391312 -79.085709 186.349945 C -79.086006 172.2957 -57.673153 159.737442 -22.982069 153.446198 C 11.709006 147.154968 54.354103 148.096283 88.752007 155.912506 C 123.149895 163.728745 144.021362 177.220337 143.437164 191.261688 Z"/>
        <g id="g3127">
            <linearGradient id="linearGradient1" x1="-41.040022" y1="142.145505" x2="107.885201" y2="142.145505" gradientUnits="userSpaceOnUse">
                <stop offset="1e-05" stop-color="#1f1f1f" stop-opacity="1"/>
                <stop offset="0.5" stop-color="#000000" stop-opacity="1"/>
                <stop offset="1" stop-color="#444444" stop-opacity="1"/>
            </linearGradient>
            <path id="path2987" fill="url(#linearGradient1)" stroke="#000000" stroke-width="1.534837" stroke-linecap="round" stroke-linejoin="round" d="M -40.205067 182.864746 C -40.911957 179.5495 -35.376781 149.825836 -34.759624 133.175903 C -34.280418 120.243988 -36.120979 94.378326 -36.120979 94.378326 L 99.332977 69.193192 C 99.332977 69.193192 96.390076 105.05159 97.291031 122.966202 C 98.260849 142.251434 111.971909 166.016815 105.285522 180.342987 C 94.204636 204.083832 60.801373 212.973602 34.669239 214.856873 C 10.940652 216.567459 -34.544243 209.409256 -40.204716 182.864746 Z"/>
            <linearGradient id="linearGradient2" x1="-47.613729" y1="97.144087" x2="100.120461" y2="97.144087" gradientUnits="userSpaceOnUse">
                <stop offset="1e-05" stop-color="#ffffff" stop-opacity="1"/>
                <stop offset="0.37675" stop-color="#7f7f7f" stop-opacity="1"/>
                <stop offset="0.80195" stop-color="#ffffff" stop-opacity="1"/>
                <stop offset="1" stop-color="#cccccc" stop-opacity="1"/>
            </linearGradient>
            <path id="path2999" fill="url(#linearGradient2)" stroke="none" d="M 99.35305 69.179367 L -36.096306 94.408997 C -36.096306 94.408997 -35.60236 101.898544 -35.184994 110.81337 C -29.173813 114.810089 -22.590439 118.700851 -17.390106 120.406097 C -0.575965 125.919807 17.929562 125.720322 35.561768 124.243187 C 50.37434 123.002365 65.658394 120.497101 78.873344 113.691177 C 84.522141 110.781891 91.777161 104.455276 97.483238 99.014313 C 98.116722 83.800232 99.353889 69.180115 99.353889 69.180115 Z"/>
            <linearGradient id="linearGradient3" x1="-73.217878" y1="65.40366" x2="67.259603" y2="65.40366" gradientUnits="userSpaceOnUse">
                <stop offset="1e-05" stop-color="#000000" stop-opacity="1"/>
                <stop offset="0.5" stop-color="#333333" stop-opacity="1"/>
                <stop offset="1" stop-color="#000000" stop-opacity="1"/>
            </linearGradient>
            <path id="path3018" fill="#323232" stroke="url(#linearGradient3)" stroke-width="3.069674" stroke-linecap="round" stroke-linejoin="round" d="M -68.895775 88.994125 C -61.90675 99.785706 -46.82943 103.310287 -34.242233 105.931046 C -12.86041 110.382355 9.674065 106.648483 31.215506 103.043259 C 54.647858 99.121429 77.116325 90.617477 99.56179 82.827881 C 114.253693 77.729172 127.279381 70.852661 142.879471 65.501114 C 145.900803 64.464645 142.197632 55.572723 139.029022 53.709122 C 129.69368 48.218552 102.584343 43.442612 84.160164 39.120209 C 67.582375 35.231079 50.914047 31.638168 34.104519 28.921799 C 18.152964 26.344086 2.055596 21.567474 -14.026432 23.146072 C -26.390457 24.359726 -39.590672 27.153519 -49.461212 34.697388 C -59.219086 42.155182 -66.355164 53.677231 -69.676544 65.501572 C -71.79493 73.045181 -73.154953 82.418549 -68.89576 88.995331 Z"/>
            <radialGradient id="radialGradient2" cx="16.533828" cy="80.687535" r="52.402627" fx="16.533828" fy="80.687535" gradientUnits="userSpaceOnUse">
                <stop offset="1e-05" stop-color="#000000" stop-opacity="1"/>
                <stop offset="1" stop-color="#242424" stop-opacity="1"/>
            </radialGradient>
            <path id="path3022" fill="url(#radialGradient2)" stroke="#1a1a1a" stroke-width="1.534837" stroke-linecap="round" stroke-linejoin="round" d="M 7.201442 46.67865 C 4.100913 46.473404 1.353553 46.49556 -1.000425 46.726532 C -11.467402 47.753998 -20.350117 50.473083 -24.35911 53.537369 C -29.180944 57.222702 -34.090744 64.71608 -36.110123 71.907867 C -36.755421 74.205811 -36.626118 75.775314 -36.637722 76.800156 C -34.790699 77.646408 -28.880505 80.570175 -18.650967 82.699738 C -3.110743 85.935028 16.536695 83.229492 38.042831 79.630066 C 55.880695 76.644653 74.587296 70.099014 94.256233 63.225739 C 92.667366 62.868637 90.988708 62.52919 89.459869 62.170547 C 73.181381 58.351715 57.084026 54.926575 41.064919 52.338043 C 27.547926 50.153824 16.174475 47.272156 7.203351 46.678329 Z"/>
            <linearGradient id="linearGradient4" x1="50.146172" y1="36.594772" x2="108.746244" y2="59.3871" gradientUnits="userSpaceOnUse">
                <stop offset="1e-05" stop-color="#000000" stop-opacity="1"/>
                <stop offset="1" stop-color="#000000" stop-opacity="0"/>
            </linearGradient>
            <path id="path3111" fill="url(#linearGradient4)" stroke="none" d="M 96.943344 41.982056 L 55.886459 54.980301 C 61.854679 56.116776 67.821213 57.366638 73.825638 58.673416 L 112.4851 45.387573 C 107.357674 44.206375 102.100258 43.09758 96.944893 41.982056 Z"/>
            <g id="g3082">
                <linearGradient id="linearGradient5" x1="14.639863" y1="51.555122" x2="20.569031" y2="70.966396" gradientUnits="userSpaceOnUse">
                    <stop offset="1e-05" stop-color="#000000" stop-opacity="1"/>
                    <stop offset="0.5" stop-color="#333333" stop-opacity="1"/>
                    <stop offset="1" stop-color="#000000" stop-opacity="1"/>
                </linearGradient>
                <path id="path3879" fill="url(#linearGradient5)" stroke="none" d="M 89.659439 29.766708 L -58.592564 73.969833 L -52.664204 93.37822 L 94.928085 47.029144 Z"/>
                <linearGradient id="linearGradient6" x1="13.077895" y1="52.033436" x2="19.005097" y2="71.438273" gradientUnits="userSpaceOnUse">
                    <stop offset="1e-05" stop-color="#808080" stop-opacity="1"/>
                    <stop offset="0.5" stop-color="#ffffff" stop-opacity="1"/>
                    <stop offset="1" stop-color="#808080" stop-opacity="1"/>
                </linearGradient>
                <path id="path3883" fill="url(#linearGradient6)" stroke="none" d="M 114.991554 29.015335 C 113.907738 25.468933 109.650093 23.938263 105.284256 24.983841 L 89.457352 29.828094 L 94.730141 47.090439 L 110.557045 42.246216 C 114.849701 40.932312 117.435524 37.016327 116.35215 33.469803 L 114.989471 29.016296 Z M -58.812836 74.036774 L -79.286278 80.303207 C -84.112839 81.780563 -87.020218 86.183517 -85.802208 90.171188 L -84.270744 95.178802 C -83.051437 99.166061 -78.182693 101.189041 -73.356125 99.71167 L -52.882687 93.445236 L -58.811043 74.036865 Z"/>
            </g>
        </g>
    </g>
    <text id="Abracadabra" xml:space="preserve" x="161" y="155" font-family="Rubik" font-size="81.875" fill="#000000">Abracadabra</text>
</svg>
