<?xml version="1.0" encoding="UTF-8"?>
<!-- Generated by Pixelmator Pro 3.1.1 -->
<svg width="600" height="250" viewBox="0 0 600 250" xmlns="http://www.w3.org/2000/svg" xmlns:xlink="http://www.w3.org/1999/xlink">
    <g id="Group">
        <radialGradient id="radialGradient1" cx="115.104771" cy="176.591435" r="108.343953" fx="115.104771" fy="176.591435" gradientUnits="userSpaceOnUse">
            <stop offset="1e-05" stop-color="#000000" stop-opacity="1"/>
            <stop offset="1" stop-color="#000000" stop-opacity="0"/>
        </radialGradient>
        <path id="path3163" fill="url(#radialGradient1)" stroke="none" opacity="0.61204" d="M 229.437164 188.261688 C 229.437469 202.315964 208.024597 214.874207 173.333527 221.165466 C 138.642441 227.456696 95.997337 226.515381 61.599449 218.699158 C 27.201563 210.882889 6.330094 197.391312 6.914292 183.349945 C 6.913995 169.2957 28.326849 156.737442 63.017929 150.446198 C 97.709007 144.154968 140.354111 145.096283 174.751999 152.912506 C 209.149902 160.728745 230.021362 174.220337 229.437164 188.261688 Z"/>
        <g id="g3127">
            <linearGradient id="linearGradient1" x1="44.959978" y1="139.145505" x2="193.885201" y2="139.145505" gradientUnits="userSpaceOnUse">
                <stop offset="1e-05" stop-color="#1f1f1f" stop-opacity="1"/>
                <stop offset="0.5" stop-color="#000000" stop-opacity="1"/>
                <stop offset="1" stop-color="#444444" stop-opacity="1"/>
            </linearGradient>
            <path id="path2987" fill="url(#linearGradient1)" stroke="#000000" stroke-width="1.534837" stroke-linecap="round" stroke-linejoin="round" d="M 45.794933 179.864746 C 45.088043 176.5495 50.623219 146.825836 51.240376 130.175903 C 51.719582 117.243988 49.879021 91.378326 49.879021 91.378326 L 185.332977 66.193192 C 185.332977 66.193192 182.390076 102.05159 183.291031 119.966202 C 184.260849 139.251434 197.971909 163.016815 191.285522 177.342987 C 180.204636 201.083832 146.801376 209.973602 120.669243 211.856873 C 96.940651 213.567459 51.455757 206.409256 45.795284 179.864746 Z"/>
            <linearGradient id="linearGradient2" x1="38.386271" y1="94.144087" x2="186.120461" y2="94.144087" gradientUnits="userSpaceOnUse">
                <stop offset="1e-05" stop-color="#ffffff" stop-opacity="1"/>
                <stop offset="0.37675" stop-color="#7f7f7f" stop-opacity="1"/>
                <stop offset="0.80195" stop-color="#ffffff" stop-opacity="1"/>
                <stop offset="1" stop-color="#cccccc" stop-opacity="1"/>
            </linearGradient>
            <path id="path2999" fill="url(#linearGradient2)" stroke="none" d="M 185.353043 66.179367 L 49.903694 91.408997 C 49.903694 91.408997 50.39764 98.898544 50.815006 107.81337 C 56.826187 111.810089 63.409561 115.700851 68.609894 117.406097 C 85.424034 122.919807 103.929565 122.720322 121.561768 121.243195 C 136.374344 120.002365 151.658401 117.497101 164.873337 110.691177 C 170.522141 107.781891 177.777161 101.455276 183.483246 96.014313 C 184.116714 80.800232 185.353897 66.180115 185.353897 66.180115 Z"/>
            <linearGradient id="linearGradient3" x1="12.782122" y1="62.40366" x2="153.259603" y2="62.40366" gradientUnits="userSpaceOnUse">
                <stop offset="1e-05" stop-color="#000000" stop-opacity="1"/>
                <stop offset="0.5" stop-color="#333333" stop-opacity="1"/>
                <stop offset="1" stop-color="#000000" stop-opacity="1"/>
            </linearGradient>
            <path id="path3018" fill="#323232" stroke="url(#linearGradient3)" stroke-width="3.069674" stroke-linecap="round" stroke-linejoin="round" d="M 17.104225 85.994125 C 24.093252 96.785706 39.17057 100.310287 51.757767 102.931046 C 73.139587 107.382355 95.674065 103.648483 117.215508 100.043259 C 140.647858 96.121429 163.116318 87.617477 185.561783 79.827881 C 200.253693 74.729172 213.279388 67.852661 228.879471 62.501114 C 231.900803 61.464645 228.197632 52.572723 225.029022 50.709122 C 215.69368 45.218552 188.584351 40.442612 170.160172 36.120209 C 153.582382 32.231079 136.914047 28.638168 120.104523 25.921799 C 104.152962 23.344086 88.055595 18.567474 71.973564 20.146072 C 59.609543 21.359726 46.409328 24.153519 36.538788 31.697388 C 26.780914 39.155182 19.644833 50.677231 16.323458 62.501572 C 14.20507 70.045181 12.845051 79.418549 17.104237 85.995331 Z"/>
            <radialGradient id="radialGradient2" cx="102.533828" cy="77.687535" r="52.402627" fx="102.533828" fy="77.687535" gradientUnits="userSpaceOnUse">
                <stop offset="1e-05" stop-color="#000000" stop-opacity="1"/>
                <stop offset="1" stop-color="#242424" stop-opacity="1"/>
            </radialGradient>
            <path id="path3022" fill="url(#radialGradient2)" stroke="#1a1a1a" stroke-width="1.534837" stroke-linecap="round" stroke-linejoin="round" d="M 93.201439 43.67865 C 90.100914 43.473404 87.353554 43.49556 84.999573 43.726532 C 74.5326 44.753998 65.649887 47.473083 61.640892 50.537369 C 56.819057 54.222702 51.909256 61.71608 49.889877 68.907867 C 49.244579 71.205811 49.373882 72.775314 49.362278 73.800156 C 51.209301 74.646408 57.119495 77.570175 67.34903 79.699738 C 82.889259 82.935028 102.536697 80.229492 124.042831 76.630066 C 141.880692 73.644653 160.587296 67.099014 180.256226 60.225739 C 178.667374 59.868637 176.988708 59.52919 175.459869 59.170547 C 159.181381 55.351715 143.08403 51.926575 127.064919 49.338043 C 113.547928 47.153824 102.174477 44.272156 93.203354 43.678329 Z"/>
            <linearGradient id="linearGradient4" x1="136.146172" y1="33.594772" x2="194.746244" y2="56.3871" gradientUnits="userSpaceOnUse">
                <stop offset="1e-05" stop-color="#000000" stop-opacity="1"/>
                <stop offset="1" stop-color="#000000" stop-opacity="0"/>
            </linearGradient>
            <path id="path3111" fill="url(#linearGradient4)" stroke="none" d="M 182.943344 38.982056 L 141.886459 51.980301 C 147.854675 53.116776 153.821213 54.366638 159.825638 55.673416 L 198.485107 42.387573 C 193.357681 41.206375 188.10025 40.09758 182.944885 38.982056 Z"/>
            <linearGradient id="linearGradient5" x1="86.125838" y1="63.877104" x2="91.958218" y2="78.519448" gradientUnits="userSpaceOnUse">
                <stop offset="1e-05" stop-color="#000000" stop-opacity="1"/>
                <stop offset="1" stop-color="#000000" stop-opacity="0"/>
            </linearGradient>
            <path id="path3090" fill="url(#linearGradient5)" stroke="none" d="M 58.578583 77.399017 L 21.453951 91.020706 C 25.030123 94.206543 29.475931 96.534454 34.260315 98.311172 L 81.60083 81.139435 C 76.550301 81.066376 71.789848 80.623642 67.355705 79.700531 C 63.930874 78.987488 61.044613 78.181519 58.578278 77.39827 Z"/>
            <g id="g3082">
                <linearGradient id="linearGradient6" x1="100.639863" y1="48.555122" x2="106.569031" y2="67.966396" gradientUnits="userSpaceOnUse">
                    <stop offset="1e-05" stop-color="#000000" stop-opacity="1"/>
                    <stop offset="0.5" stop-color="#333333" stop-opacity="1"/>
                    <stop offset="1" stop-color="#000000" stop-opacity="1"/>
                </linearGradient>
                <path id="path3879" fill="url(#linearGradient6)" stroke="none" d="M 175.659439 26.766708 L 27.407436 70.969833 L 33.335796 90.37822 L 180.928085 44.029144 Z"/>
                <linearGradient id="linearGradient7" x1="99.077895" y1="49.033436" x2="105.005097" y2="68.438273" gradientUnits="userSpaceOnUse">
                    <stop offset="1e-05" stop-color="#808080" stop-opacity="1"/>
                    <stop offset="0.5" stop-color="#ffffff" stop-opacity="1"/>
                    <stop offset="1" stop-color="#808080" stop-opacity="1"/>
                </linearGradient>
                <path id="path3883" fill="url(#linearGradient7)" stroke="none" d="M 200.991562 26.015335 C 199.90773 22.468933 195.650101 20.938263 191.284256 21.983841 L 175.457352 26.828094 L 180.730148 44.090439 L 196.557053 39.246216 C 200.849701 37.932312 203.435516 34.016327 202.352142 30.469803 L 200.989471 26.016296 Z M 27.187164 71.036774 L 6.713723 77.303207 C 1.887158 78.780563 -1.020219 83.183517 0.197791 87.171188 L 1.729255 92.178802 C 2.948563 96.166061 7.817307 98.189041 12.643871 96.71167 L 33.117313 90.445236 L 27.188957 71.036865 Z"/>
            </g>
        </g>
    </g>
    <text id="Abracadabra" xml:space="preserve" x="255" y="131" font-family="Rubik" font-size="48" fill="#000000">Abracadabra</text>
</svg>
