<?xml version="1.0" encoding="UTF-8"?>
<!-- Generated by Pixelmator Pro 3.1.1 -->
<svg width="800" height="250" viewBox="0 0 800 250" xmlns="http://www.w3.org/2000/svg" xmlns:xlink="http://www.w3.org/1999/xlink">
    <g id="Group">
        <radialGradient id="radialGradient1" cx="127.104771" cy="179.591435" r="108.343953" fx="127.104771" fy="179.591435" gradientUnits="userSpaceOnUse">
            <stop offset="1e-05" stop-color="#000000" stop-opacity="1"/>
            <stop offset="1" stop-color="#000000" stop-opacity="0"/>
        </radialGradient>
        <path id="path3163" fill="url(#radialGradient1)" stroke="none" opacity="0.61204" d="M 241.437164 191.261688 C 241.437469 205.315964 220.024597 217.874207 185.333527 224.165466 C 150.642441 230.456696 107.997337 229.515381 73.599449 221.699158 C 39.201561 213.882889 18.330093 200.391312 18.914291 186.349945 C 18.913996 172.2957 40.326847 159.737442 75.017929 153.446198 C 109.709007 147.154968 152.354111 148.096283 186.751999 155.912506 C 221.149902 163.728745 242.021362 177.220337 241.437164 191.261688 Z"/>
        <g id="g3127">
            <linearGradient id="linearGradient1" x1="56.959978" y1="142.145505" x2="205.885201" y2="142.145505" gradientUnits="userSpaceOnUse">
                <stop offset="1e-05" stop-color="#1f1f1f" stop-opacity="1"/>
                <stop offset="0.5" stop-color="#000000" stop-opacity="1"/>
                <stop offset="1" stop-color="#444444" stop-opacity="1"/>
            </linearGradient>
            <path id="path2987" fill="url(#linearGradient1)" stroke="#000000" stroke-width="1.534837" stroke-linecap="round" stroke-linejoin="round" d="M 57.794933 182.864746 C 57.088043 179.5495 62.623219 149.825836 63.240376 133.175903 C 63.719582 120.243988 61.879021 94.378326 61.879021 94.378326 L 197.332977 69.193192 C 197.332977 69.193192 194.390076 105.05159 195.291031 122.966202 C 196.260849 142.251434 209.971909 166.016815 203.285522 180.342987 C 192.204636 204.083832 158.801376 212.973602 132.669235 214.856873 C 108.940651 216.567459 63.455757 209.409256 57.795284 182.864746 Z"/>
            <linearGradient id="linearGradient2" x1="50.386271" y1="97.144087" x2="198.120461" y2="97.144087" gradientUnits="userSpaceOnUse">
                <stop offset="1e-05" stop-color="#ffffff" stop-opacity="1"/>
                <stop offset="0.37675" stop-color="#7f7f7f" stop-opacity="1"/>
                <stop offset="0.80195" stop-color="#ffffff" stop-opacity="1"/>
                <stop offset="1" stop-color="#cccccc" stop-opacity="1"/>
            </linearGradient>
            <path id="path2999" fill="url(#linearGradient2)" stroke="none" d="M 197.353043 69.179367 L 61.903694 94.408997 C 61.903694 94.408997 62.39764 101.898544 62.815006 110.81337 C 68.826187 114.810089 75.409561 118.700851 80.609894 120.406097 C 97.424034 125.919807 115.929565 125.720322 133.561768 124.243187 C 148.374344 123.002365 163.658401 120.497101 176.873337 113.691177 C 182.522141 110.781891 189.777161 104.455276 195.483246 99.014313 C 196.116714 83.800232 197.353897 69.180115 197.353897 69.180115 Z"/>
            <linearGradient id="linearGradient3" x1="24.782122" y1="65.40366" x2="165.259603" y2="65.40366" gradientUnits="userSpaceOnUse">
                <stop offset="1e-05" stop-color="#000000" stop-opacity="1"/>
                <stop offset="0.5" stop-color="#333333" stop-opacity="1"/>
                <stop offset="1" stop-color="#000000" stop-opacity="1"/>
            </linearGradient>
            <path id="path3018" fill="#323232" stroke="url(#linearGradient3)" stroke-width="3.069674" stroke-linecap="round" stroke-linejoin="round" d="M 29.104225 88.994125 C 36.09325 99.785706 51.17057 103.310287 63.757767 105.931046 C 85.139587 110.382355 107.674065 106.648483 129.2155 103.043259 C 152.647858 99.121429 175.116318 90.617477 197.561783 82.827881 C 212.253693 77.729172 225.279388 70.852661 240.879471 65.501114 C 243.900803 64.464645 240.197632 55.572723 237.029022 53.709122 C 227.69368 48.218552 200.584351 43.442612 182.160172 39.120209 C 165.582382 35.231079 148.914047 31.638168 132.104523 28.921799 C 116.152962 26.344086 100.055595 21.567474 83.973564 23.146072 C 71.609543 24.359726 58.409328 27.153519 48.538788 34.697388 C 38.780914 42.155182 31.644833 53.677231 28.323458 65.501572 C 26.20507 73.045181 24.845051 82.418549 29.104237 88.995331 Z"/>
            <radialGradient id="radialGradient2" cx="114.533828" cy="80.687535" r="52.402627" fx="114.533828" fy="80.687535" gradientUnits="userSpaceOnUse">
                <stop offset="1e-05" stop-color="#000000" stop-opacity="1"/>
                <stop offset="1" stop-color="#242424" stop-opacity="1"/>
            </radialGradient>
            <path id="path3022" fill="url(#radialGradient2)" stroke="#1a1a1a" stroke-width="1.534837" stroke-linecap="round" stroke-linejoin="round" d="M 105.201439 46.67865 C 102.100914 46.473404 99.353554 46.49556 96.999573 46.726532 C 86.5326 47.753998 77.649887 50.473083 73.640892 53.537369 C 68.819054 57.222702 63.909256 64.71608 61.889877 71.907867 C 61.244579 74.205811 61.373882 75.775314 61.362278 76.800156 C 63.209301 77.646408 69.119499 80.570175 79.34903 82.699738 C 94.889259 85.935028 114.536697 83.229492 136.042831 79.630066 C 153.880692 76.644653 172.587296 70.099014 192.256226 63.225739 C 190.667374 62.868637 188.988708 62.52919 187.459869 62.170547 C 171.181381 58.351715 155.08403 54.926575 139.064911 52.338043 C 125.547928 50.153824 114.174477 47.272156 105.203354 46.678329 Z"/>
            <linearGradient id="linearGradient4" x1="148.146172" y1="36.594772" x2="206.746244" y2="59.3871" gradientUnits="userSpaceOnUse">
                <stop offset="1e-05" stop-color="#000000" stop-opacity="1"/>
                <stop offset="1" stop-color="#000000" stop-opacity="0"/>
            </linearGradient>
            <path id="path3111" fill="url(#linearGradient4)" stroke="none" d="M 194.943344 41.982056 L 153.886459 54.980301 C 159.854675 56.116776 165.821213 57.366638 171.825638 58.673416 L 210.485107 45.387573 C 205.357681 44.206375 200.10025 43.09758 194.944885 41.982056 Z"/>
            <linearGradient id="linearGradient5" x1="98.125838" y1="66.877104" x2="103.958218" y2="81.519448" gradientUnits="userSpaceOnUse">
                <stop offset="1e-05" stop-color="#000000" stop-opacity="1"/>
                <stop offset="1" stop-color="#000000" stop-opacity="0"/>
            </linearGradient>
            <path id="path3090" fill="url(#linearGradient5)" stroke="none" d="M 70.578583 80.399017 L 33.453949 94.020706 C 37.030125 97.206543 41.475929 99.534454 46.260315 101.311172 L 93.60083 84.139435 C 88.550301 84.066376 83.789848 83.623642 79.355705 82.700531 C 75.93087 81.987488 73.044609 81.181519 70.578278 80.39827 Z"/>
            <g id="g3082">
                <linearGradient id="linearGradient6" x1="112.639863" y1="51.555122" x2="118.569031" y2="70.966396" gradientUnits="userSpaceOnUse">
                    <stop offset="1e-05" stop-color="#000000" stop-opacity="1"/>
                    <stop offset="0.5" stop-color="#333333" stop-opacity="1"/>
                    <stop offset="1" stop-color="#000000" stop-opacity="1"/>
                </linearGradient>
                <path id="path3879" fill="url(#linearGradient6)" stroke="none" d="M 187.659439 29.766708 L 39.407436 73.969833 L 45.335796 93.37822 L 192.928085 47.029144 Z"/>
                <linearGradient id="linearGradient7" x1="111.077895" y1="52.033436" x2="117.005097" y2="71.438273" gradientUnits="userSpaceOnUse">
                    <stop offset="1e-05" stop-color="#808080" stop-opacity="1"/>
                    <stop offset="0.5" stop-color="#ffffff" stop-opacity="1"/>
                    <stop offset="1" stop-color="#808080" stop-opacity="1"/>
                </linearGradient>
                <path id="path3883" fill="url(#linearGradient7)" stroke="none" d="M 212.991562 29.015335 C 211.90773 25.468933 207.650101 23.938263 203.284256 24.983841 L 187.457352 29.828094 L 192.730148 47.090439 L 208.557053 42.246216 C 212.849701 40.932312 215.435516 37.016327 214.352142 33.469803 L 212.989471 29.016296 Z M 39.187164 74.036774 L 18.713722 80.303207 C 13.887158 81.780563 10.97978 86.183517 12.19779 90.171188 L 13.729255 95.178802 C 14.948563 99.166061 19.817307 101.189041 24.643871 99.71167 L 45.117313 93.445236 L 39.188957 74.036865 Z"/>
            </g>
        </g>
    </g>
    <text id="Abracadabra" xml:space="preserve" x="259" y="155" font-family="Rubik" font-size="81.875" fill="#000000">Abracadabra</text>
</svg>
